<svg width="24" height="24" viewBox="0 0 24 24" fill="none" xmlns="http://www.w3.org/2000/svg">
<circle cx="12" cy="12" r="12" fill="#D9D9D9"/>
<path d="M8.68952 17.372C8.68952 17.4509 8.59677 17.5141 8.47984 17.5141C8.34677 17.5259 8.25403 17.4628 8.25403 17.372C8.25403 17.293 8.34677 17.2299 8.46371 17.2299C8.58468 17.218 8.68952 17.2812 8.68952 17.372ZM7.43548 17.1943C7.40726 17.2733 7.4879 17.3641 7.60887 17.3878C7.71371 17.4272 7.83468 17.3878 7.85887 17.3088C7.88306 17.2299 7.80645 17.1391 7.68548 17.1035C7.58065 17.0759 7.46371 17.1154 7.43548 17.1943ZM9.21774 17.1272C9.10081 17.1549 9.02016 17.2299 9.03226 17.3207C9.04435 17.3996 9.14919 17.4509 9.27016 17.4233C9.3871 17.3957 9.46774 17.3207 9.45564 17.2417C9.44355 17.1667 9.33468 17.1154 9.21774 17.1272ZM11.871 2C6.27823 2 2 6.15683 2 11.6322C2 16.01 4.81452 19.7563 8.83468 21.0748C9.35081 21.1656 9.53226 20.8538 9.53226 20.5972C9.53226 20.3524 9.52016 19.0023 9.52016 18.1733C9.52016 18.1733 6.69758 18.7655 6.10484 16.9969C6.10484 16.9969 5.64516 15.8482 4.98387 15.5521C4.98387 15.5521 4.06048 14.9324 5.04839 14.9442C5.04839 14.9442 6.05242 15.0231 6.60484 15.9627C7.4879 17.4865 8.96774 17.0483 9.54435 16.7877C9.6371 16.1561 9.89919 15.7179 10.1895 15.4574C7.93548 15.2126 5.66129 14.8929 5.66129 11.0953C5.66129 10.0097 5.96774 9.46492 6.6129 8.77014C6.50806 8.51355 6.16532 7.45559 6.71774 6.08972C7.56048 5.83312 9.5 7.15557 9.5 7.15557C10.3065 6.93451 11.1734 6.82003 12.0323 6.82003C12.8911 6.82003 13.7581 6.93451 14.5645 7.15557C14.5645 7.15557 16.504 5.82918 17.3468 6.08972C17.8992 7.45954 17.5565 8.51355 17.4516 8.77014C18.0968 9.46887 18.4919 10.0136 18.4919 11.0953C18.4919 14.9047 16.1169 15.2087 13.8629 15.4574C14.2339 15.7692 14.5484 16.3614 14.5484 17.2891C14.5484 18.6194 14.5363 20.2656 14.5363 20.5893C14.5363 20.8459 14.7218 21.1577 15.2339 21.0669C19.2661 19.7563 22 16.01 22 11.6322C22 6.15683 17.4637 2 11.871 2ZM5.91935 15.6153C5.86694 15.6548 5.87903 15.7456 5.94758 15.8206C6.0121 15.8837 6.10484 15.9114 6.15726 15.86C6.20968 15.8206 6.19758 15.7298 6.12903 15.6548C6.06452 15.5916 5.97177 15.564 5.91935 15.6153ZM5.48387 15.2955C5.45565 15.3469 5.49597 15.41 5.57661 15.4495C5.64113 15.489 5.72177 15.4771 5.75 15.4219C5.77823 15.3705 5.7379 15.3074 5.65726 15.2679C5.57661 15.2442 5.5121 15.2561 5.48387 15.2955ZM6.79032 16.7009C6.72581 16.7522 6.75 16.8706 6.84274 16.9456C6.93548 17.0364 7.05242 17.0483 7.10484 16.9851C7.15726 16.9338 7.13306 16.8154 7.05242 16.7404C6.96371 16.6496 6.84274 16.6377 6.79032 16.7009ZM6.33065 16.1206C6.26613 16.1601 6.26613 16.2627 6.33065 16.3535C6.39516 16.4443 6.50403 16.4838 6.55645 16.4443C6.62097 16.393 6.62097 16.2903 6.55645 16.1995C6.5 16.1087 6.39516 16.0693 6.33065 16.1206Z" fill="#8E2735"/>
</svg>
