<svg width="81" height="60" viewBox="0 0 81 60" fill="none" xmlns="http://www.w3.org/2000/svg">
<rect width="80" height="60" rx="30" fill="#FCFCFC"/>
<g filter="url(#filter0_d_58_4)">
<path d="M14.7344 19.0938H36.25V24.75H29.0312V42H21.9531V24.75H14.7344V19.0938ZM34.1562 35.625H40.9531V42H34.1562V35.625Z" fill="#8E2735"/>
<path d="M43.9844 34.4219L50.7188 34C50.8646 35.0938 51.1615 35.9271 51.6094 36.5C52.3385 37.4271 53.3802 37.8906 54.7344 37.8906C55.7448 37.8906 56.5208 37.6562 57.0625 37.1875C57.6146 36.7083 57.8906 36.1562 57.8906 35.5312C57.8906 34.9375 57.6302 34.4062 57.1094 33.9375C56.5885 33.4688 55.3802 33.026 53.4844 32.6094C50.3802 31.9115 48.1667 30.9844 46.8438 29.8281C45.5104 28.6719 44.8438 27.1979 44.8438 25.4062C44.8438 24.2292 45.1823 23.1198 45.8594 22.0781C46.5469 21.026 47.5729 20.2031 48.9375 19.6094C50.3125 19.0052 52.1927 18.7031 54.5781 18.7031C57.5052 18.7031 59.7344 19.25 61.2656 20.3438C62.8073 21.4271 63.724 23.1562 64.0156 25.5312L57.3438 25.9219C57.1667 24.8906 56.7917 24.1406 56.2188 23.6719C55.6562 23.2031 54.875 22.9688 53.875 22.9688C53.0521 22.9688 52.4323 23.1458 52.0156 23.5C51.599 23.8438 51.3906 24.2656 51.3906 24.7656C51.3906 25.1302 51.5625 25.4583 51.9062 25.75C52.2396 26.0521 53.0312 26.3333 54.2812 26.5938C57.375 27.2604 59.5885 27.9375 60.9219 28.625C62.2656 29.3021 63.2396 30.1458 63.8438 31.1562C64.4583 32.1667 64.7656 33.2969 64.7656 34.5469C64.7656 36.0156 64.3594 37.3698 63.5469 38.6094C62.7344 39.849 61.599 40.7917 60.1406 41.4375C58.6823 42.0729 56.8438 42.3906 54.625 42.3906C50.7292 42.3906 48.0312 41.6406 46.5312 40.1406C45.0312 38.6406 44.1823 36.7344 43.9844 34.4219Z" fill="#333333"/>
</g>
<defs>
<filter id="filter0_d_58_4" x="6.73438" y="10.7031" width="74.0312" height="47.6875" filterUnits="userSpaceOnUse" color-interpolation-filters="sRGB">
<feFlood flood-opacity="0" result="BackgroundImageFix"/>
<feColorMatrix in="SourceAlpha" type="matrix" values="0 0 0 0 0 0 0 0 0 0 0 0 0 0 0 0 0 0 127 0" result="hardAlpha"/>
<feOffset dx="4" dy="4"/>
<feGaussianBlur stdDeviation="6"/>
<feComposite in2="hardAlpha" operator="out"/>
<feColorMatrix type="matrix" values="0 0 0 0 0.556863 0 0 0 0 0.152941 0 0 0 0 0.207843 0 0 0 0.25 0"/>
<feBlend mode="normal" in2="BackgroundImageFix" result="effect1_dropShadow_58_4"/>
<feBlend mode="normal" in="SourceGraphic" in2="effect1_dropShadow_58_4" result="shape"/>
</filter>
</defs>
</svg>
