<svg width="22" height="17" viewBox="0 0 22 17" fill="none" xmlns="http://www.w3.org/2000/svg">
<path fill-rule="evenodd" clip-rule="evenodd" d="M0.5 8.5C0.5 8.25965 0.579018 8.02914 0.71967 7.85919C0.860322 7.68923 1.05109 7.59375 1.25 7.59375H18.9395L14.219 1.89163C14.0782 1.72146 13.9991 1.49066 13.9991 1.25C13.9991 1.00934 14.0782 0.778545 14.219 0.608375C14.3598 0.438206 14.5508 0.342606 14.75 0.342606C14.9492 0.342606 15.1402 0.438206 15.281 0.608375L21.281 7.85837C21.3508 7.94256 21.4063 8.04256 21.4441 8.15266C21.4819 8.26277 21.5013 8.3808 21.5013 8.5C21.5013 8.6192 21.4819 8.73723 21.4441 8.84733C21.4063 8.95744 21.3508 9.05744 21.281 9.14163L15.281 16.3916C15.1402 16.5618 14.9492 16.6574 14.75 16.6574C14.5508 16.6574 14.3598 16.5618 14.219 16.3916C14.0782 16.2215 13.9991 15.9907 13.9991 15.75C13.9991 15.5093 14.0782 15.2785 14.219 15.1084L18.9395 9.40625H1.25C1.05109 9.40625 0.860322 9.31077 0.71967 9.14082C0.579018 8.97086 0.5 8.74035 0.5 8.5Z" fill="white"/>
</svg>
