<svg width="24" height="24" viewBox="0 0 24 24" fill="none" xmlns="http://www.w3.org/2000/svg">
<circle cx="12" cy="12" r="12" fill="#D9D9D9"/>
<path d="M19.1498 9.48905C19.1612 9.64217 19.1612 9.79532 19.1612 9.94844C19.1612 14.6187 15.4493 20 8.66499 20C6.57488 20 4.63326 19.4203 3 18.4141C3.29697 18.4469 3.58247 18.4578 3.89086 18.4578C5.61546 18.4578 7.20305 17.9 8.47083 16.9485C6.84899 16.9156 5.48985 15.8984 5.02156 14.4984C5.25001 14.5312 5.47842 14.5531 5.71829 14.5531C6.0495 14.5531 6.38074 14.5093 6.6891 14.4328C4.99875 14.1047 3.73094 12.6828 3.73094 10.9656V10.9219C4.22204 11.1844 4.79315 11.3484 5.39844 11.3703C4.40478 10.7359 3.75379 9.65311 3.75379 8.4281C3.75379 7.77186 3.9365 7.1703 4.25631 6.6453C6.07232 8.78904 8.80203 10.189 11.8629 10.3422C11.8058 10.0797 11.7716 9.80626 11.7716 9.53282C11.7716 7.58592 13.4162 6 15.4607 6C16.5228 6 17.4822 6.42656 18.1561 7.11562C18.9898 6.96251 19.7893 6.66718 20.4975 6.2625C20.2233 7.08283 19.6409 7.7719 18.8756 8.20937C19.618 8.13284 20.3376 7.93592 21 7.66251C20.4975 8.36248 19.8693 8.9859 19.1498 9.48905Z" fill="#8E2735"/>
</svg>
